<mxfile host="Electron" modified="2024-03-25T14:54:58.221Z" agent="Mozilla/5.0 (Windows NT 10.0; Win64; x64) AppleWebKit/537.36 (KHTML, like Gecko) draw.io/24.1.0 Chrome/120.0.6099.109 Electron/28.1.0 Safari/537.36" etag="sJ1mNMFVxtNALfRvhfTT" version="24.1.0" type="device">
  <diagram id="C5RBs43oDa-KdzZeNtuy" name="Page-1">
    <mxGraphModel dx="1600" dy="2136" grid="1" gridSize="10" guides="1" tooltips="1" connect="1" arrows="1" fold="1" page="1" pageScale="1" pageWidth="827" pageHeight="1169" math="0" shadow="0">
      <root>
        <mxCell id="WIyWlLk6GJQsqaUBKTNV-0" />
        <mxCell id="WIyWlLk6GJQsqaUBKTNV-1" parent="WIyWlLk6GJQsqaUBKTNV-0" />
        <mxCell id="zkfFHV4jXpPFQw0GAbJ--0" value="Tag(article)" style="swimlane;fontStyle=2;align=center;verticalAlign=top;childLayout=stackLayout;horizontal=1;startSize=30;horizontalStack=0;resizeParent=1;resizeLast=0;collapsible=1;marginBottom=0;rounded=0;shadow=0;strokeWidth=1;" parent="WIyWlLk6GJQsqaUBKTNV-1" vertex="1">
          <mxGeometry x="20" y="890" width="160" height="222" as="geometry">
            <mxRectangle x="230" y="140" width="160" height="26" as="alternateBounds" />
          </mxGeometry>
        </mxCell>
        <mxCell id="-qquWbDdeYW89p1yPmAm-0" value="id_TagArt&#xa;&#xa;Nom&#xa;&#xa;Description&#xa;&#xa;NbArticles&#xa;&#xa;" style="text;align=left;verticalAlign=top;spacingLeft=4;spacingRight=4;overflow=hidden;rotatable=0;points=[[0,0.5],[1,0.5]];portConstraint=eastwest;rounded=0;shadow=0;html=0;" parent="zkfFHV4jXpPFQw0GAbJ--0" vertex="1">
          <mxGeometry y="30" width="160" height="192" as="geometry" />
        </mxCell>
        <mxCell id="-qquWbDdeYW89p1yPmAm-1" value="Profile" style="swimlane;fontStyle=2;align=center;verticalAlign=top;childLayout=stackLayout;horizontal=1;startSize=30;horizontalStack=0;resizeParent=1;resizeLast=0;collapsible=1;marginBottom=0;rounded=0;shadow=0;strokeWidth=1;" parent="WIyWlLk6GJQsqaUBKTNV-1" vertex="1">
          <mxGeometry x="720" y="-940" width="160" height="420" as="geometry">
            <mxRectangle x="230" y="140" width="160" height="26" as="alternateBounds" />
          </mxGeometry>
        </mxCell>
        <mxCell id="-qquWbDdeYW89p1yPmAm-5" value="Id_Profile&#xa; &#xa;Nom &#xa;&#xa;Prénom&#xa;&#xa;Email&#xa;&#xa;Mot de passe&#xa;&#xa;Photo de profil&#xa;&#xa;Date de naissance&#xa;&#xa;Sexe&#xa;&#xa;Rôle&#xa;&#xa;&#xa;date_Ajout&#xa;&#xa;Date_Modif&#xa;&#xa;statut" style="text;align=left;verticalAlign=top;spacingLeft=4;spacingRight=4;overflow=hidden;rotatable=0;points=[[0,0.5],[1,0.5]];portConstraint=eastwest;rounded=0;shadow=0;html=0;" parent="-qquWbDdeYW89p1yPmAm-1" vertex="1">
          <mxGeometry y="30" width="160" height="390" as="geometry" />
        </mxCell>
        <mxCell id="-qquWbDdeYW89p1yPmAm-11" value="Article" style="swimlane;fontStyle=2;align=center;verticalAlign=top;childLayout=stackLayout;horizontal=1;startSize=30;horizontalStack=0;resizeParent=1;resizeLast=0;collapsible=1;marginBottom=0;rounded=0;shadow=0;strokeWidth=1;" parent="WIyWlLk6GJQsqaUBKTNV-1" vertex="1">
          <mxGeometry x="500" y="730" width="160" height="300" as="geometry">
            <mxRectangle x="230" y="140" width="160" height="26" as="alternateBounds" />
          </mxGeometry>
        </mxCell>
        <mxCell id="-qquWbDdeYW89p1yPmAm-12" value="id_Article" style="text;align=left;verticalAlign=top;spacingLeft=4;spacingRight=4;overflow=hidden;rotatable=0;points=[[0,0.5],[1,0.5]];portConstraint=eastwest;" parent="-qquWbDdeYW89p1yPmAm-11" vertex="1">
          <mxGeometry y="30" width="160" height="26" as="geometry" />
        </mxCell>
        <mxCell id="-qquWbDdeYW89p1yPmAm-13" value="Nom" style="text;align=left;verticalAlign=top;spacingLeft=4;spacingRight=4;overflow=hidden;rotatable=0;points=[[0,0.5],[1,0.5]];portConstraint=eastwest;rounded=0;shadow=0;html=0;" parent="-qquWbDdeYW89p1yPmAm-11" vertex="1">
          <mxGeometry y="56" width="160" height="26" as="geometry" />
        </mxCell>
        <mxCell id="-qquWbDdeYW89p1yPmAm-14" value="Contenu" style="text;align=left;verticalAlign=top;spacingLeft=4;spacingRight=4;overflow=hidden;rotatable=0;points=[[0,0.5],[1,0.5]];portConstraint=eastwest;rounded=0;shadow=0;html=0;" parent="-qquWbDdeYW89p1yPmAm-11" vertex="1">
          <mxGeometry y="82" width="160" height="26" as="geometry" />
        </mxCell>
        <mxCell id="-qquWbDdeYW89p1yPmAm-15" value="Date_publi&#xa;&#xa;Auteur&#xa;&#xa;Categorie&#xa;&#xa;Tags&#xa;&#xa;NbrVues&#xa;&#xa;NbreReaction&#xa;&#xa;NbreCommentaire&#xa;" style="text;align=left;verticalAlign=top;spacingLeft=4;spacingRight=4;overflow=hidden;rotatable=0;points=[[0,0.5],[1,0.5]];portConstraint=eastwest;rounded=0;shadow=0;html=0;" parent="-qquWbDdeYW89p1yPmAm-11" vertex="1">
          <mxGeometry y="108" width="160" height="192" as="geometry" />
        </mxCell>
        <mxCell id="-qquWbDdeYW89p1yPmAm-16" value="Catégorie(article)" style="swimlane;fontStyle=2;align=center;verticalAlign=top;childLayout=stackLayout;horizontal=1;startSize=20;horizontalStack=0;resizeParent=1;resizeLast=0;collapsible=1;marginBottom=0;rounded=0;shadow=0;strokeWidth=1;" parent="WIyWlLk6GJQsqaUBKTNV-1" vertex="1">
          <mxGeometry x="70" y="440" width="160" height="212" as="geometry">
            <mxRectangle x="230" y="140" width="160" height="26" as="alternateBounds" />
          </mxGeometry>
        </mxCell>
        <mxCell id="-qquWbDdeYW89p1yPmAm-20" value="id_CategArt&#xa;&#xa; Nom,&#xa;&#xa;Description, &#xa;&#xa;Image&#xa;&#xa;NbArticles" style="text;align=left;verticalAlign=top;spacingLeft=4;spacingRight=4;overflow=hidden;rotatable=0;points=[[0,0.5],[1,0.5]];portConstraint=eastwest;rounded=0;shadow=0;html=0;" parent="-qquWbDdeYW89p1yPmAm-16" vertex="1">
          <mxGeometry y="20" width="160" height="192" as="geometry" />
        </mxCell>
        <mxCell id="-qquWbDdeYW89p1yPmAm-21" value="" style="endArrow=none;html=1;rounded=0;fontSize=12;startSize=8;endSize=8;entryX=0.488;entryY=1.004;entryDx=0;entryDy=0;entryPerimeter=0;exitX=0.5;exitY=0;exitDx=0;exitDy=0;" parent="WIyWlLk6GJQsqaUBKTNV-1" source="-qquWbDdeYW89p1yPmAm-28" target="-qquWbDdeYW89p1yPmAm-5" edge="1">
          <mxGeometry width="50" height="50" relative="1" as="geometry">
            <mxPoint x="840" y="360" as="sourcePoint" />
            <mxPoint x="890" y="310" as="targetPoint" />
          </mxGeometry>
        </mxCell>
        <mxCell id="-qquWbDdeYW89p1yPmAm-22" value="" style="endArrow=none;html=1;rounded=0;fontSize=12;startSize=8;endSize=8;entryX=0.013;entryY=0.574;entryDx=0;entryDy=0;entryPerimeter=0;" parent="WIyWlLk6GJQsqaUBKTNV-1" source="-qquWbDdeYW89p1yPmAm-26" target="-qquWbDdeYW89p1yPmAm-15" edge="1">
          <mxGeometry width="50" height="50" relative="1" as="geometry">
            <mxPoint x="712" y="634" as="sourcePoint" />
            <mxPoint x="710" y="535" as="targetPoint" />
          </mxGeometry>
        </mxCell>
        <mxCell id="-qquWbDdeYW89p1yPmAm-23" value="" style="endArrow=none;html=1;rounded=0;fontSize=12;startSize=8;endSize=8;entryX=0;entryY=0.5;entryDx=0;entryDy=0;exitX=1.012;exitY=0.445;exitDx=0;exitDy=0;exitPerimeter=0;" parent="WIyWlLk6GJQsqaUBKTNV-1" source="-qquWbDdeYW89p1yPmAm-24" target="-qquWbDdeYW89p1yPmAm-12" edge="1">
          <mxGeometry width="50" height="50" relative="1" as="geometry">
            <mxPoint x="660" y="449" as="sourcePoint" />
            <mxPoint x="829" y="410" as="targetPoint" />
          </mxGeometry>
        </mxCell>
        <mxCell id="-qquWbDdeYW89p1yPmAm-25" value="" style="endArrow=none;html=1;rounded=0;fontSize=12;startSize=8;endSize=8;entryX=0.013;entryY=0.574;entryDx=0;entryDy=0;entryPerimeter=0;exitX=1.012;exitY=0.445;exitDx=0;exitDy=0;exitPerimeter=0;" parent="WIyWlLk6GJQsqaUBKTNV-1" source="-qquWbDdeYW89p1yPmAm-20" target="-qquWbDdeYW89p1yPmAm-24" edge="1">
          <mxGeometry width="50" height="50" relative="1" as="geometry">
            <mxPoint x="662" y="335" as="sourcePoint" />
            <mxPoint x="829" y="410" as="targetPoint" />
          </mxGeometry>
        </mxCell>
        <mxCell id="-qquWbDdeYW89p1yPmAm-24" value="Contient" style="ellipse;whiteSpace=wrap;html=1;" parent="WIyWlLk6GJQsqaUBKTNV-1" vertex="1">
          <mxGeometry x="310" y="630" width="120" height="50" as="geometry" />
        </mxCell>
        <mxCell id="-qquWbDdeYW89p1yPmAm-27" value="" style="endArrow=none;html=1;rounded=0;fontSize=12;startSize=8;endSize=8;entryX=0.013;entryY=0.574;entryDx=0;entryDy=0;entryPerimeter=0;" parent="WIyWlLk6GJQsqaUBKTNV-1" source="-qquWbDdeYW89p1yPmAm-0" target="-qquWbDdeYW89p1yPmAm-26" edge="1">
          <mxGeometry width="50" height="50" relative="1" as="geometry">
            <mxPoint x="660" y="617" as="sourcePoint" />
            <mxPoint x="829" y="578" as="targetPoint" />
          </mxGeometry>
        </mxCell>
        <mxCell id="-qquWbDdeYW89p1yPmAm-26" value="ajoute" style="ellipse;whiteSpace=wrap;html=1;" parent="WIyWlLk6GJQsqaUBKTNV-1" vertex="1">
          <mxGeometry x="280" y="920" width="120" height="80" as="geometry" />
        </mxCell>
        <mxCell id="-qquWbDdeYW89p1yPmAm-29" value="" style="endArrow=none;html=1;rounded=0;fontSize=12;startSize=8;endSize=8;entryX=0.488;entryY=1.004;entryDx=0;entryDy=0;entryPerimeter=0;exitX=0.5;exitY=0;exitDx=0;exitDy=0;" parent="WIyWlLk6GJQsqaUBKTNV-1" source="-qquWbDdeYW89p1yPmAm-11" target="-qquWbDdeYW89p1yPmAm-28" edge="1">
          <mxGeometry width="50" height="50" relative="1" as="geometry">
            <mxPoint x="907" y="360" as="sourcePoint" />
            <mxPoint x="905" y="261" as="targetPoint" />
          </mxGeometry>
        </mxCell>
        <mxCell id="-qquWbDdeYW89p1yPmAm-28" value="Ajoute" style="ellipse;whiteSpace=wrap;html=1;" parent="WIyWlLk6GJQsqaUBKTNV-1" vertex="1">
          <mxGeometry x="640" y="111" width="80" height="50" as="geometry" />
        </mxCell>
        <mxCell id="-qquWbDdeYW89p1yPmAm-30" value="0,n" style="text;html=1;align=center;verticalAlign=middle;resizable=0;points=[];autosize=1;strokeColor=none;fillColor=none;fontSize=16;" parent="WIyWlLk6GJQsqaUBKTNV-1" vertex="1">
          <mxGeometry x="730" y="-490" width="50" height="30" as="geometry" />
        </mxCell>
        <mxCell id="-qquWbDdeYW89p1yPmAm-31" value="1,n" style="text;html=1;align=center;verticalAlign=middle;resizable=0;points=[];autosize=1;strokeColor=none;fillColor=none;fontSize=16;" parent="WIyWlLk6GJQsqaUBKTNV-1" vertex="1">
          <mxGeometry x="680" y="200" width="50" height="30" as="geometry" />
        </mxCell>
        <mxCell id="-qquWbDdeYW89p1yPmAm-32" value="Image_Produit" style="swimlane;fontStyle=2;align=center;verticalAlign=top;childLayout=stackLayout;horizontal=1;startSize=20;horizontalStack=0;resizeParent=1;resizeLast=0;collapsible=1;marginBottom=0;rounded=0;shadow=0;strokeWidth=1;" parent="WIyWlLk6GJQsqaUBKTNV-1" vertex="1">
          <mxGeometry x="2270" y="970" width="160" height="110" as="geometry">
            <mxRectangle x="230" y="140" width="160" height="26" as="alternateBounds" />
          </mxGeometry>
        </mxCell>
        <mxCell id="-qquWbDdeYW89p1yPmAm-33" value="id_ImProd&#xa;&#xa;Lien" style="text;align=left;verticalAlign=top;spacingLeft=4;spacingRight=4;overflow=hidden;rotatable=0;points=[[0,0.5],[1,0.5]];portConstraint=eastwest;rounded=0;shadow=0;html=0;" parent="-qquWbDdeYW89p1yPmAm-32" vertex="1">
          <mxGeometry y="20" width="160" height="70" as="geometry" />
        </mxCell>
        <mxCell id="-qquWbDdeYW89p1yPmAm-34" value="Avis" style="swimlane;fontStyle=2;align=center;verticalAlign=top;childLayout=stackLayout;horizontal=1;startSize=20;horizontalStack=0;resizeParent=1;resizeLast=0;collapsible=1;marginBottom=0;rounded=0;shadow=0;strokeWidth=1;" parent="WIyWlLk6GJQsqaUBKTNV-1" vertex="1">
          <mxGeometry x="1720" y="-950" width="160" height="250" as="geometry">
            <mxRectangle x="230" y="140" width="160" height="26" as="alternateBounds" />
          </mxGeometry>
        </mxCell>
        <mxCell id="-qquWbDdeYW89p1yPmAm-35" value="id_Avis&#xa;&#xa;note&#xa;&#xa;commentaire&#xa;&#xa;auteur&#xa;&#xa;produit&#xa;&#xa;date_Ajout&#xa;&#xa;Date_Modif&#xa;&#xa;statut" style="text;align=left;verticalAlign=top;spacingLeft=4;spacingRight=4;overflow=hidden;rotatable=0;points=[[0,0.5],[1,0.5]];portConstraint=eastwest;rounded=0;shadow=0;html=0;" parent="-qquWbDdeYW89p1yPmAm-34" vertex="1">
          <mxGeometry y="20" width="160" height="230" as="geometry" />
        </mxCell>
        <mxCell id="-qquWbDdeYW89p1yPmAm-36" value="Produit" style="swimlane;fontStyle=2;align=center;verticalAlign=top;childLayout=stackLayout;horizontal=1;startSize=20;horizontalStack=0;resizeParent=1;resizeLast=0;collapsible=1;marginBottom=0;rounded=0;shadow=0;strokeWidth=1;" parent="WIyWlLk6GJQsqaUBKTNV-1" vertex="1">
          <mxGeometry x="1670" y="40" width="160" height="280" as="geometry">
            <mxRectangle x="230" y="140" width="160" height="26" as="alternateBounds" />
          </mxGeometry>
        </mxCell>
        <mxCell id="-qquWbDdeYW89p1yPmAm-37" value="id_Produit&#xa;&#xa;nom&#xa;&#xa;description&#xa;&#xa;prix&#xa;&#xa;quantite&#xa;&#xa;date_Ajout&#xa;&#xa;Date_Modif&#xa;&#xa;statut" style="text;align=left;verticalAlign=top;spacingLeft=4;spacingRight=4;overflow=hidden;rotatable=0;points=[[0,0.5],[1,0.5]];portConstraint=eastwest;rounded=0;shadow=0;html=0;" parent="-qquWbDdeYW89p1yPmAm-36" vertex="1">
          <mxGeometry y="20" width="160" height="220" as="geometry" />
        </mxCell>
        <mxCell id="-qquWbDdeYW89p1yPmAm-38" value="Commentaire" style="swimlane;fontStyle=2;align=center;verticalAlign=top;childLayout=stackLayout;horizontal=1;startSize=20;horizontalStack=0;resizeParent=1;resizeLast=0;collapsible=1;marginBottom=0;rounded=0;shadow=0;strokeWidth=1;" parent="WIyWlLk6GJQsqaUBKTNV-1" vertex="1">
          <mxGeometry x="1110" y="930" width="160" height="260" as="geometry">
            <mxRectangle x="230" y="140" width="160" height="26" as="alternateBounds" />
          </mxGeometry>
        </mxCell>
        <mxCell id="-qquWbDdeYW89p1yPmAm-39" value="id_Commentaire&#xa;&#xa;contenu&#xa;&#xa;auteur&#xa;&#xa;article&#xa;&#xa;NbreReaction&#xa;&#xa;date_Ajout&#xa;&#xa;Date_Modif&#xa;&#xa;statut" style="text;align=left;verticalAlign=top;spacingLeft=4;spacingRight=4;overflow=hidden;rotatable=0;points=[[0,0.5],[1,0.5]];portConstraint=eastwest;rounded=0;shadow=0;html=0;" parent="-qquWbDdeYW89p1yPmAm-38" vertex="1">
          <mxGeometry y="20" width="160" height="240" as="geometry" />
        </mxCell>
        <mxCell id="-qquWbDdeYW89p1yPmAm-40" value="Reaction" style="swimlane;fontStyle=2;align=center;verticalAlign=top;childLayout=stackLayout;horizontal=1;startSize=20;horizontalStack=0;resizeParent=1;resizeLast=0;collapsible=1;marginBottom=0;rounded=0;shadow=0;strokeWidth=1;" parent="WIyWlLk6GJQsqaUBKTNV-1" vertex="1">
          <mxGeometry x="970" y="-222" width="160" height="212" as="geometry">
            <mxRectangle x="230" y="140" width="160" height="26" as="alternateBounds" />
          </mxGeometry>
        </mxCell>
        <mxCell id="-qquWbDdeYW89p1yPmAm-41" value="id_Reaction&#xa;&#xa;utilisateur&#xa;&#xa;article&#xa;&#xa;date_Ajout&#xa;&#xa;Date_Modif&#xa;&#xa;statut" style="text;align=left;verticalAlign=top;spacingLeft=4;spacingRight=4;overflow=hidden;rotatable=0;points=[[0,0.5],[1,0.5]];portConstraint=eastwest;rounded=0;shadow=0;html=0;" parent="-qquWbDdeYW89p1yPmAm-40" vertex="1">
          <mxGeometry y="20" width="160" height="192" as="geometry" />
        </mxCell>
        <mxCell id="-qquWbDdeYW89p1yPmAm-44" value="Abonnée" style="swimlane;fontStyle=2;align=center;verticalAlign=top;childLayout=stackLayout;horizontal=1;startSize=20;horizontalStack=0;resizeParent=1;resizeLast=0;collapsible=1;marginBottom=0;rounded=0;shadow=0;strokeWidth=1;" parent="WIyWlLk6GJQsqaUBKTNV-1" vertex="1">
          <mxGeometry x="270" y="-40" width="160" height="270" as="geometry">
            <mxRectangle x="230" y="140" width="160" height="26" as="alternateBounds" />
          </mxGeometry>
        </mxCell>
        <mxCell id="-qquWbDdeYW89p1yPmAm-45" value="id_Abonne&#xa;&#xa;nom&#xa;&#xa;prenom&#xa;&#xa;Email&#xa;&#xa;Adresse&#xa;&#xa;type_abonnement&#xa;&#xa;date_Ajout&#xa;&#xa;Date_Modif&#xa;&#xa;statut" style="text;align=left;verticalAlign=top;spacingLeft=4;spacingRight=4;overflow=hidden;rotatable=0;points=[[0,0.5],[1,0.5]];portConstraint=eastwest;rounded=0;shadow=0;html=0;" parent="-qquWbDdeYW89p1yPmAm-44" vertex="1">
          <mxGeometry y="20" width="160" height="250" as="geometry" />
        </mxCell>
        <mxCell id="-qquWbDdeYW89p1yPmAm-48" value="Commande" style="swimlane;fontStyle=2;align=center;verticalAlign=top;childLayout=stackLayout;horizontal=1;startSize=20;horizontalStack=0;resizeParent=1;resizeLast=0;collapsible=1;marginBottom=0;rounded=0;shadow=0;strokeWidth=1;" parent="WIyWlLk6GJQsqaUBKTNV-1" vertex="1">
          <mxGeometry x="1280" y="48" width="160" height="282" as="geometry">
            <mxRectangle x="230" y="140" width="160" height="26" as="alternateBounds" />
          </mxGeometry>
        </mxCell>
        <mxCell id="-qquWbDdeYW89p1yPmAm-49" value="id_Commande&#xa;&#xa;date_Livraison&#xa;&#xa;Heure_Livraison&#xa;&#xa;Lieu&#xa;&#xa;Produit&#xa;&#xa;Prix&#xa;&#xa;date_Ajout&#xa;&#xa;Date_Modif&#xa;&#xa;statut" style="text;align=left;verticalAlign=top;spacingLeft=4;spacingRight=4;overflow=hidden;rotatable=0;points=[[0,0.5],[1,0.5]];portConstraint=eastwest;rounded=0;shadow=0;html=0;" parent="-qquWbDdeYW89p1yPmAm-48" vertex="1">
          <mxGeometry y="20" width="160" height="260" as="geometry" />
        </mxCell>
        <mxCell id="-qquWbDdeYW89p1yPmAm-50" value="1,1" style="text;html=1;align=center;verticalAlign=middle;resizable=0;points=[];autosize=1;strokeColor=none;fillColor=none;fontSize=16;" parent="WIyWlLk6GJQsqaUBKTNV-1" vertex="1">
          <mxGeometry x="230" y="530" width="50" height="30" as="geometry" />
        </mxCell>
        <mxCell id="-qquWbDdeYW89p1yPmAm-51" value="0,n" style="text;html=1;align=center;verticalAlign=middle;resizable=0;points=[];autosize=1;strokeColor=none;fillColor=none;fontSize=16;" parent="WIyWlLk6GJQsqaUBKTNV-1" vertex="1">
          <mxGeometry x="430" y="750" width="50" height="30" as="geometry" />
        </mxCell>
        <mxCell id="-qquWbDdeYW89p1yPmAm-52" value="0,n" style="text;html=1;align=center;verticalAlign=middle;resizable=0;points=[];autosize=1;strokeColor=none;fillColor=none;fontSize=16;" parent="WIyWlLk6GJQsqaUBKTNV-1" vertex="1">
          <mxGeometry x="180" y="945" width="50" height="30" as="geometry" />
        </mxCell>
        <mxCell id="-qquWbDdeYW89p1yPmAm-53" value="0,n" style="text;html=1;align=center;verticalAlign=middle;resizable=0;points=[];autosize=1;strokeColor=none;fillColor=none;fontSize=16;" parent="WIyWlLk6GJQsqaUBKTNV-1" vertex="1">
          <mxGeometry x="580" y="700" width="50" height="30" as="geometry" />
        </mxCell>
        <mxCell id="-qquWbDdeYW89p1yPmAm-54" value="" style="endArrow=none;html=1;rounded=0;fontSize=12;startSize=8;endSize=8;entryX=-0.017;entryY=0.996;entryDx=0;entryDy=0;entryPerimeter=0;exitX=0.5;exitY=0;exitDx=0;exitDy=0;" parent="WIyWlLk6GJQsqaUBKTNV-1" source="-qquWbDdeYW89p1yPmAm-55" target="-qquWbDdeYW89p1yPmAm-41" edge="1">
          <mxGeometry width="50" height="50" relative="1" as="geometry">
            <mxPoint x="981" y="365.5" as="sourcePoint" />
            <mxPoint x="980" y="306.5" as="targetPoint" />
          </mxGeometry>
        </mxCell>
        <mxCell id="-qquWbDdeYW89p1yPmAm-56" value="" style="endArrow=none;html=1;rounded=0;fontSize=12;startSize=8;endSize=8;exitX=1.009;exitY=0.043;exitDx=0;exitDy=0;exitPerimeter=0;" parent="WIyWlLk6GJQsqaUBKTNV-1" source="-qquWbDdeYW89p1yPmAm-14" target="-qquWbDdeYW89p1yPmAm-55" edge="1">
          <mxGeometry width="50" height="50" relative="1" as="geometry">
            <mxPoint x="981" y="365.5" as="sourcePoint" />
            <mxPoint x="1027" y="259" as="targetPoint" />
          </mxGeometry>
        </mxCell>
        <mxCell id="-qquWbDdeYW89p1yPmAm-55" value="reagie" style="ellipse;whiteSpace=wrap;html=1;" parent="WIyWlLk6GJQsqaUBKTNV-1" vertex="1">
          <mxGeometry x="890" y="332" width="70" height="40" as="geometry" />
        </mxCell>
        <mxCell id="-qquWbDdeYW89p1yPmAm-57" value="0,n" style="text;html=1;align=center;verticalAlign=middle;resizable=0;points=[];autosize=1;strokeColor=none;fillColor=none;fontSize=16;" parent="WIyWlLk6GJQsqaUBKTNV-1" vertex="1">
          <mxGeometry x="827" y="391" width="50" height="30" as="geometry" />
        </mxCell>
        <mxCell id="-qquWbDdeYW89p1yPmAm-58" value="1,n" style="text;html=1;align=center;verticalAlign=middle;resizable=0;points=[];autosize=1;strokeColor=none;fillColor=none;fontSize=16;" parent="WIyWlLk6GJQsqaUBKTNV-1" vertex="1">
          <mxGeometry x="980" y="11" width="50" height="30" as="geometry" />
        </mxCell>
        <mxCell id="-qquWbDdeYW89p1yPmAm-46" value="Livraison" style="swimlane;fontStyle=2;align=center;verticalAlign=top;childLayout=stackLayout;horizontal=1;startSize=20;horizontalStack=0;resizeParent=1;resizeLast=0;collapsible=1;marginBottom=0;rounded=0;shadow=0;strokeWidth=1;" parent="WIyWlLk6GJQsqaUBKTNV-1" vertex="1">
          <mxGeometry x="1520" y="920" width="160" height="240" as="geometry">
            <mxRectangle x="230" y="140" width="160" height="26" as="alternateBounds" />
          </mxGeometry>
        </mxCell>
        <mxCell id="-qquWbDdeYW89p1yPmAm-47" value="id_Livraison&#xa;&#xa;date_Commande&#xa;&#xa;date_Livraison&#xa;&#xa;Adresse_Livraison&#xa;&#xa;date_Ajout&#xa;&#xa;Date_Modif&#xa;&#xa;statut" style="text;align=left;verticalAlign=top;spacingLeft=4;spacingRight=4;overflow=hidden;rotatable=0;points=[[0,0.5],[1,0.5]];portConstraint=eastwest;rounded=0;shadow=0;html=0;" parent="-qquWbDdeYW89p1yPmAm-46" vertex="1">
          <mxGeometry y="20" width="160" height="200" as="geometry" />
        </mxCell>
        <mxCell id="-qquWbDdeYW89p1yPmAm-59" value="" style="endArrow=none;html=1;rounded=0;fontSize=12;startSize=8;endSize=8;entryX=-0.002;entryY=0.309;entryDx=0;entryDy=0;entryPerimeter=0;" parent="WIyWlLk6GJQsqaUBKTNV-1" source="-qquWbDdeYW89p1yPmAm-60" target="-qquWbDdeYW89p1yPmAm-39" edge="1">
          <mxGeometry width="50" height="50" relative="1" as="geometry">
            <mxPoint x="990" y="520" as="sourcePoint" />
            <mxPoint x="916" y="311" as="targetPoint" />
            <Array as="points" />
          </mxGeometry>
        </mxCell>
        <mxCell id="-qquWbDdeYW89p1yPmAm-61" value="" style="endArrow=none;html=1;rounded=0;fontSize=12;startSize=8;endSize=8;entryX=-0.002;entryY=0.309;entryDx=0;entryDy=0;entryPerimeter=0;exitX=1.011;exitY=0.296;exitDx=0;exitDy=0;exitPerimeter=0;" parent="WIyWlLk6GJQsqaUBKTNV-1" source="-qquWbDdeYW89p1yPmAm-15" target="-qquWbDdeYW89p1yPmAm-60" edge="1">
          <mxGeometry width="50" height="50" relative="1" as="geometry">
            <mxPoint x="990" y="520" as="sourcePoint" />
            <mxPoint x="1130" y="524" as="targetPoint" />
            <Array as="points" />
          </mxGeometry>
        </mxCell>
        <mxCell id="-qquWbDdeYW89p1yPmAm-60" value="commenté" style="ellipse;whiteSpace=wrap;html=1;" parent="WIyWlLk6GJQsqaUBKTNV-1" vertex="1">
          <mxGeometry x="890" y="770" width="100" height="38" as="geometry" />
        </mxCell>
        <mxCell id="-qquWbDdeYW89p1yPmAm-63" value="0,n" style="text;html=1;align=center;verticalAlign=middle;resizable=0;points=[];autosize=1;strokeColor=none;fillColor=none;fontSize=16;" parent="WIyWlLk6GJQsqaUBKTNV-1" vertex="1">
          <mxGeometry x="660" y="900" width="50" height="30" as="geometry" />
        </mxCell>
        <mxCell id="-qquWbDdeYW89p1yPmAm-64" value="1,n" style="text;html=1;align=center;verticalAlign=middle;resizable=0;points=[];autosize=1;strokeColor=none;fillColor=none;fontSize=16;" parent="WIyWlLk6GJQsqaUBKTNV-1" vertex="1">
          <mxGeometry x="1040" y="960" width="50" height="30" as="geometry" />
        </mxCell>
        <mxCell id="-qquWbDdeYW89p1yPmAm-65" value="" style="endArrow=none;html=1;rounded=0;fontSize=12;startSize=8;endSize=8;exitX=1;exitY=0.5;exitDx=0;exitDy=0;entryX=0.006;entryY=0.627;entryDx=0;entryDy=0;entryPerimeter=0;" parent="WIyWlLk6GJQsqaUBKTNV-1" source="-qquWbDdeYW89p1yPmAm-49" target="-qquWbDdeYW89p1yPmAm-37" edge="1">
          <mxGeometry width="50" height="50" relative="1" as="geometry">
            <mxPoint x="1520" y="230" as="sourcePoint" />
            <mxPoint x="1570" y="180" as="targetPoint" />
          </mxGeometry>
        </mxCell>
        <mxCell id="-qquWbDdeYW89p1yPmAm-66" value="commandée" style="ellipse;whiteSpace=wrap;html=1;" parent="WIyWlLk6GJQsqaUBKTNV-1" vertex="1">
          <mxGeometry x="1500" y="158" width="120" height="80" as="geometry" />
        </mxCell>
        <mxCell id="-qquWbDdeYW89p1yPmAm-67" value="1,n" style="text;html=1;align=center;verticalAlign=middle;resizable=0;points=[];autosize=1;strokeColor=none;fillColor=none;fontSize=16;" parent="WIyWlLk6GJQsqaUBKTNV-1" vertex="1">
          <mxGeometry x="1429" y="174" width="50" height="30" as="geometry" />
        </mxCell>
        <mxCell id="-qquWbDdeYW89p1yPmAm-68" value="0,n" style="text;html=1;align=center;verticalAlign=middle;resizable=0;points=[];autosize=1;strokeColor=none;fillColor=none;fontSize=16;" parent="WIyWlLk6GJQsqaUBKTNV-1" vertex="1">
          <mxGeometry x="1625" y="174" width="50" height="30" as="geometry" />
        </mxCell>
        <mxCell id="-qquWbDdeYW89p1yPmAm-69" value="" style="endArrow=none;html=1;rounded=0;fontSize=12;startSize=8;endSize=8;entryX=0.5;entryY=1;entryDx=0;entryDy=0;exitX=0.5;exitY=0;exitDx=0;exitDy=0;" parent="WIyWlLk6GJQsqaUBKTNV-1" source="-qquWbDdeYW89p1yPmAm-46" target="-qquWbDdeYW89p1yPmAm-48" edge="1">
          <mxGeometry width="50" height="50" relative="1" as="geometry">
            <mxPoint x="1340" y="480" as="sourcePoint" />
            <mxPoint x="1390" y="430" as="targetPoint" />
          </mxGeometry>
        </mxCell>
        <mxCell id="-qquWbDdeYW89p1yPmAm-70" value="effectuer" style="ellipse;whiteSpace=wrap;html=1;" parent="WIyWlLk6GJQsqaUBKTNV-1" vertex="1">
          <mxGeometry x="1349" y="580" width="120" height="80" as="geometry" />
        </mxCell>
        <mxCell id="-qquWbDdeYW89p1yPmAm-71" value="" style="endArrow=none;html=1;rounded=0;fontSize=12;startSize=8;endSize=8;entryX=0.25;entryY=0;entryDx=0;entryDy=0;" parent="WIyWlLk6GJQsqaUBKTNV-1" target="-qquWbDdeYW89p1yPmAm-36" edge="1" source="-qquWbDdeYW89p1yPmAm-35">
          <mxGeometry width="50" height="50" relative="1" as="geometry">
            <mxPoint x="1700" y="-290" as="sourcePoint" />
            <mxPoint x="1670" y="300" as="targetPoint" />
          </mxGeometry>
        </mxCell>
        <mxCell id="-qquWbDdeYW89p1yPmAm-72" value="donne" style="ellipse;whiteSpace=wrap;html=1;" parent="WIyWlLk6GJQsqaUBKTNV-1" vertex="1">
          <mxGeometry x="1640" y="-190" width="120" height="80" as="geometry" />
        </mxCell>
        <mxCell id="-qquWbDdeYW89p1yPmAm-73" value="" style="endArrow=none;html=1;rounded=0;fontSize=12;startSize=8;endSize=8;exitX=0.75;exitY=1;exitDx=0;exitDy=0;entryX=0;entryY=0.5;entryDx=0;entryDy=0;" parent="WIyWlLk6GJQsqaUBKTNV-1" source="-qquWbDdeYW89p1yPmAm-36" target="-qquWbDdeYW89p1yPmAm-33" edge="1">
          <mxGeometry width="50" height="50" relative="1" as="geometry">
            <mxPoint x="1970.1813257520857" y="681.1114632009535" as="sourcePoint" />
            <mxPoint x="1960" y="320" as="targetPoint" />
          </mxGeometry>
        </mxCell>
        <mxCell id="-qquWbDdeYW89p1yPmAm-75" value="1,n" style="text;html=1;align=center;verticalAlign=middle;resizable=0;points=[];autosize=1;strokeColor=none;fillColor=none;fontSize=16;" parent="WIyWlLk6GJQsqaUBKTNV-1" vertex="1">
          <mxGeometry x="2190" y="1000" width="50" height="30" as="geometry" />
        </mxCell>
        <mxCell id="-qquWbDdeYW89p1yPmAm-76" value="1,n" style="text;html=1;align=center;verticalAlign=middle;resizable=0;points=[];autosize=1;strokeColor=none;fillColor=none;fontSize=16;" parent="WIyWlLk6GJQsqaUBKTNV-1" vertex="1">
          <mxGeometry x="1819" y="310" width="50" height="30" as="geometry" />
        </mxCell>
        <mxCell id="-qquWbDdeYW89p1yPmAm-78" value="" style="endArrow=none;html=1;rounded=0;fontSize=12;startSize=8;endSize=8;entryX=0;entryY=0;entryDx=0;entryDy=0;exitX=0.619;exitY=0.996;exitDx=0;exitDy=0;exitPerimeter=0;" parent="WIyWlLk6GJQsqaUBKTNV-1" source="-qquWbDdeYW89p1yPmAm-5" target="-qquWbDdeYW89p1yPmAm-36" edge="1">
          <mxGeometry width="50" height="50" relative="1" as="geometry">
            <mxPoint x="1470" y="30" as="sourcePoint" />
            <mxPoint x="1520" y="-20" as="targetPoint" />
          </mxGeometry>
        </mxCell>
        <mxCell id="-qquWbDdeYW89p1yPmAm-79" value="0,n" style="text;html=1;align=center;verticalAlign=middle;resizable=0;points=[];autosize=1;strokeColor=none;fillColor=none;fontSize=16;" parent="WIyWlLk6GJQsqaUBKTNV-1" vertex="1">
          <mxGeometry x="890" y="-510" width="50" height="30" as="geometry" />
        </mxCell>
        <mxCell id="-qquWbDdeYW89p1yPmAm-80" value="Ajoute" style="ellipse;whiteSpace=wrap;html=1;" parent="WIyWlLk6GJQsqaUBKTNV-1" vertex="1">
          <mxGeometry x="1270" y="-290" width="120" height="80" as="geometry" />
        </mxCell>
        <mxCell id="-qquWbDdeYW89p1yPmAm-81" value="0,n" style="text;html=1;align=center;verticalAlign=middle;resizable=0;points=[];autosize=1;strokeColor=none;fillColor=none;fontSize=16;" parent="WIyWlLk6GJQsqaUBKTNV-1" vertex="1">
          <mxGeometry x="1635" y="10" width="50" height="30" as="geometry" />
        </mxCell>
        <mxCell id="-qquWbDdeYW89p1yPmAm-82" value="0,n" style="text;html=1;align=center;verticalAlign=middle;resizable=0;points=[];autosize=1;strokeColor=none;fillColor=none;fontSize=16;" parent="WIyWlLk6GJQsqaUBKTNV-1" vertex="1">
          <mxGeometry x="1790" y="-690" width="50" height="30" as="geometry" />
        </mxCell>
        <mxCell id="-qquWbDdeYW89p1yPmAm-83" value="1,n" style="text;html=1;align=center;verticalAlign=middle;resizable=0;points=[];autosize=1;strokeColor=none;fillColor=none;fontSize=16;" parent="WIyWlLk6GJQsqaUBKTNV-1" vertex="1">
          <mxGeometry x="1710" width="50" height="30" as="geometry" />
        </mxCell>
        <mxCell id="-qquWbDdeYW89p1yPmAm-84" value="Catégorie_" style="swimlane;fontStyle=2;align=center;verticalAlign=top;childLayout=stackLayout;horizontal=1;startSize=20;horizontalStack=0;resizeParent=1;resizeLast=0;collapsible=1;marginBottom=0;rounded=0;shadow=0;strokeWidth=1;" parent="WIyWlLk6GJQsqaUBKTNV-1" vertex="1">
          <mxGeometry x="2030" y="50" width="160" height="212" as="geometry">
            <mxRectangle x="230" y="140" width="160" height="26" as="alternateBounds" />
          </mxGeometry>
        </mxCell>
        <mxCell id="-qquWbDdeYW89p1yPmAm-85" value="id_CategProd&#xa;&#xa; Nom,&#xa;&#xa;Description, &#xa;&#xa;Image&#xa;&#xa;NbArticles" style="text;align=left;verticalAlign=top;spacingLeft=4;spacingRight=4;overflow=hidden;rotatable=0;points=[[0,0.5],[1,0.5]];portConstraint=eastwest;rounded=0;shadow=0;html=0;" parent="-qquWbDdeYW89p1yPmAm-84" vertex="1">
          <mxGeometry y="20" width="160" height="192" as="geometry" />
        </mxCell>
        <mxCell id="-qquWbDdeYW89p1yPmAm-88" value="" style="endArrow=none;html=1;rounded=0;fontSize=12;startSize=8;endSize=8;exitX=1.012;exitY=0.447;exitDx=0;exitDy=0;exitPerimeter=0;entryX=-0.04;entryY=0.414;entryDx=0;entryDy=0;entryPerimeter=0;" parent="WIyWlLk6GJQsqaUBKTNV-1" source="-qquWbDdeYW89p1yPmAm-37" target="-qquWbDdeYW89p1yPmAm-85" edge="1">
          <mxGeometry width="50" height="50" relative="1" as="geometry">
            <mxPoint x="1832" y="158" as="sourcePoint" />
            <mxPoint x="1868.9999999999845" y="165.5" as="targetPoint" />
          </mxGeometry>
        </mxCell>
        <mxCell id="-qquWbDdeYW89p1yPmAm-89" value="Tag_" style="swimlane;fontStyle=2;align=center;verticalAlign=top;childLayout=stackLayout;horizontal=1;startSize=30;horizontalStack=0;resizeParent=1;resizeLast=0;collapsible=1;marginBottom=0;rounded=0;shadow=0;strokeWidth=1;" parent="WIyWlLk6GJQsqaUBKTNV-1" vertex="1">
          <mxGeometry x="2030" y="-222" width="160" height="222" as="geometry">
            <mxRectangle x="230" y="140" width="160" height="26" as="alternateBounds" />
          </mxGeometry>
        </mxCell>
        <mxCell id="-qquWbDdeYW89p1yPmAm-90" value="id_TagProd&#xa;&#xa;Nom&#xa;&#xa;Description&#xa;&#xa;NbArticles&#xa;&#xa;" style="text;align=left;verticalAlign=top;spacingLeft=4;spacingRight=4;overflow=hidden;rotatable=0;points=[[0,0.5],[1,0.5]];portConstraint=eastwest;rounded=0;shadow=0;html=0;" parent="-qquWbDdeYW89p1yPmAm-89" vertex="1">
          <mxGeometry y="30" width="160" height="192" as="geometry" />
        </mxCell>
        <mxCell id="-qquWbDdeYW89p1yPmAm-91" value="" style="endArrow=none;html=1;rounded=0;fontSize=12;startSize=8;endSize=8;entryX=-0.01;entryY=0.432;entryDx=0;entryDy=0;entryPerimeter=0;exitX=1;exitY=0;exitDx=0;exitDy=0;" parent="WIyWlLk6GJQsqaUBKTNV-1" source="-qquWbDdeYW89p1yPmAm-92" target="-qquWbDdeYW89p1yPmAm-90" edge="1">
          <mxGeometry width="50" height="50" relative="1" as="geometry">
            <mxPoint x="1870" y="110" as="sourcePoint" />
            <mxPoint x="1920" y="60" as="targetPoint" />
          </mxGeometry>
        </mxCell>
        <mxCell id="-qquWbDdeYW89p1yPmAm-93" value="" style="endArrow=none;html=1;rounded=0;fontSize=12;startSize=8;endSize=8;entryX=-0.01;entryY=0.432;entryDx=0;entryDy=0;entryPerimeter=0;exitX=1;exitY=0;exitDx=0;exitDy=0;" parent="WIyWlLk6GJQsqaUBKTNV-1" source="-qquWbDdeYW89p1yPmAm-36" target="-qquWbDdeYW89p1yPmAm-92" edge="1">
          <mxGeometry width="50" height="50" relative="1" as="geometry">
            <mxPoint x="1830" y="40" as="sourcePoint" />
            <mxPoint x="2028" y="-109" as="targetPoint" />
          </mxGeometry>
        </mxCell>
        <mxCell id="-qquWbDdeYW89p1yPmAm-92" value="ajoute" style="ellipse;whiteSpace=wrap;html=1;" parent="WIyWlLk6GJQsqaUBKTNV-1" vertex="1">
          <mxGeometry x="1880" y="-60" width="110" height="40" as="geometry" />
        </mxCell>
        <mxCell id="-qquWbDdeYW89p1yPmAm-96" value="" style="endArrow=none;html=1;rounded=0;fontSize=12;startSize=8;endSize=8;entryX=-0.001;entryY=0.426;entryDx=0;entryDy=0;entryPerimeter=0;exitX=1.028;exitY=0.324;exitDx=0;exitDy=0;exitPerimeter=0;" parent="WIyWlLk6GJQsqaUBKTNV-1" source="-qquWbDdeYW89p1yPmAm-5" target="-qquWbDdeYW89p1yPmAm-35" edge="1">
          <mxGeometry width="50" height="50" relative="1" as="geometry">
            <mxPoint x="1230" y="-200" as="sourcePoint" />
            <mxPoint x="1280" y="-250" as="targetPoint" />
          </mxGeometry>
        </mxCell>
        <mxCell id="-qquWbDdeYW89p1yPmAm-97" value="donne" style="ellipse;whiteSpace=wrap;html=1;" parent="WIyWlLk6GJQsqaUBKTNV-1" vertex="1">
          <mxGeometry x="1220" y="-800" width="120" height="80" as="geometry" />
        </mxCell>
        <mxCell id="-qquWbDdeYW89p1yPmAm-98" value="0,n" style="text;html=1;align=center;verticalAlign=middle;resizable=0;points=[];autosize=1;strokeColor=none;fillColor=none;fontSize=16;" parent="WIyWlLk6GJQsqaUBKTNV-1" vertex="1">
          <mxGeometry x="890" y="-830" width="50" height="30" as="geometry" />
        </mxCell>
        <mxCell id="-qquWbDdeYW89p1yPmAm-99" value="1,n" style="text;html=1;align=center;verticalAlign=middle;resizable=0;points=[];autosize=1;strokeColor=none;fillColor=none;fontSize=16;" parent="WIyWlLk6GJQsqaUBKTNV-1" vertex="1">
          <mxGeometry x="1670" y="-820" width="50" height="30" as="geometry" />
        </mxCell>
        <mxCell id="-qquWbDdeYW89p1yPmAm-100" value="" style="endArrow=none;html=1;rounded=0;fontSize=12;startSize=8;endSize=8;entryX=0;entryY=0.5;entryDx=0;entryDy=0;exitX=1.026;exitY=0.211;exitDx=0;exitDy=0;exitPerimeter=0;" parent="WIyWlLk6GJQsqaUBKTNV-1" source="-qquWbDdeYW89p1yPmAm-45" target="-qquWbDdeYW89p1yPmAm-5" edge="1">
          <mxGeometry width="50" height="50" relative="1" as="geometry">
            <mxPoint x="670" y="20" as="sourcePoint" />
            <mxPoint x="720" y="-30" as="targetPoint" />
          </mxGeometry>
        </mxCell>
        <mxCell id="-qquWbDdeYW89p1yPmAm-101" value="abonnement" style="ellipse;whiteSpace=wrap;html=1;" parent="WIyWlLk6GJQsqaUBKTNV-1" vertex="1">
          <mxGeometry x="530" y="-260" width="150" height="80" as="geometry" />
        </mxCell>
        <mxCell id="-qquWbDdeYW89p1yPmAm-102" value="1,n" style="text;html=1;align=center;verticalAlign=middle;resizable=0;points=[];autosize=1;strokeColor=none;fillColor=none;fontSize=16;" parent="WIyWlLk6GJQsqaUBKTNV-1" vertex="1">
          <mxGeometry x="440" y="50" width="50" height="30" as="geometry" />
        </mxCell>
        <mxCell id="-qquWbDdeYW89p1yPmAm-103" value="0,n" style="text;html=1;align=center;verticalAlign=middle;resizable=0;points=[];autosize=1;strokeColor=none;fillColor=none;fontSize=16;" parent="WIyWlLk6GJQsqaUBKTNV-1" vertex="1">
          <mxGeometry x="640" y="-700" width="50" height="30" as="geometry" />
        </mxCell>
        <mxCell id="-qquWbDdeYW89p1yPmAm-104" value="Sous_Catégorie" style="swimlane;fontStyle=2;align=center;verticalAlign=top;childLayout=stackLayout;horizontal=1;startSize=20;horizontalStack=0;resizeParent=1;resizeLast=0;collapsible=1;marginBottom=0;rounded=0;shadow=0;strokeWidth=1;" parent="WIyWlLk6GJQsqaUBKTNV-1" vertex="1">
          <mxGeometry x="2510" y="373" width="160" height="212" as="geometry">
            <mxRectangle x="230" y="140" width="160" height="26" as="alternateBounds" />
          </mxGeometry>
        </mxCell>
        <mxCell id="-qquWbDdeYW89p1yPmAm-105" value="id_SousCateg&#xa;&#xa; Nom&#xa;&#xa;Description&#xa;&#xa;TypeCateg&#xa;&#xa;Image&#xa;&#xa;NbArticles" style="text;align=left;verticalAlign=top;spacingLeft=4;spacingRight=4;overflow=hidden;rotatable=0;points=[[0,0.5],[1,0.5]];portConstraint=eastwest;rounded=0;shadow=0;html=0;" parent="-qquWbDdeYW89p1yPmAm-104" vertex="1">
          <mxGeometry y="20" width="160" height="192" as="geometry" />
        </mxCell>
        <mxCell id="-qquWbDdeYW89p1yPmAm-108" value="" style="endArrow=none;html=1;rounded=0;fontSize=12;startSize=8;endSize=8;exitX=1;exitY=0.5;exitDx=0;exitDy=0;" parent="WIyWlLk6GJQsqaUBKTNV-1" source="-qquWbDdeYW89p1yPmAm-85" target="-qquWbDdeYW89p1yPmAm-105" edge="1">
          <mxGeometry width="50" height="50" relative="1" as="geometry">
            <mxPoint x="2190" y="164" as="sourcePoint" />
            <mxPoint x="2208.9199999999996" y="439.6959999999999" as="targetPoint" />
          </mxGeometry>
        </mxCell>
        <mxCell id="-qquWbDdeYW89p1yPmAm-109" value="0,n" style="text;html=1;align=center;verticalAlign=middle;resizable=0;points=[];autosize=1;strokeColor=none;fillColor=none;fontSize=16;" parent="WIyWlLk6GJQsqaUBKTNV-1" vertex="1">
          <mxGeometry x="2199" y="141" width="50" height="30" as="geometry" />
        </mxCell>
        <mxCell id="-qquWbDdeYW89p1yPmAm-111" value="1,1" style="text;html=1;align=center;verticalAlign=middle;resizable=0;points=[];autosize=1;strokeColor=none;fillColor=none;fontSize=16;" parent="WIyWlLk6GJQsqaUBKTNV-1" vertex="1">
          <mxGeometry x="2450" y="440" width="50" height="30" as="geometry" />
        </mxCell>
        <mxCell id="-qquWbDdeYW89p1yPmAm-112" value="1,n" style="text;html=1;align=center;verticalAlign=middle;resizable=0;points=[];autosize=1;strokeColor=none;fillColor=none;fontSize=16;" parent="WIyWlLk6GJQsqaUBKTNV-1" vertex="1">
          <mxGeometry x="1989" y="109" width="50" height="30" as="geometry" />
        </mxCell>
        <mxCell id="-qquWbDdeYW89p1yPmAm-113" value="1,1" style="text;html=1;align=center;verticalAlign=middle;resizable=0;points=[];autosize=1;strokeColor=none;fillColor=none;fontSize=16;" parent="WIyWlLk6GJQsqaUBKTNV-1" vertex="1">
          <mxGeometry x="1830" y="109" width="50" height="30" as="geometry" />
        </mxCell>
        <mxCell id="-qquWbDdeYW89p1yPmAm-114" value="0,n" style="text;html=1;align=center;verticalAlign=middle;resizable=0;points=[];autosize=1;strokeColor=none;fillColor=none;fontSize=16;" parent="WIyWlLk6GJQsqaUBKTNV-1" vertex="1">
          <mxGeometry x="1799" y="11" width="50" height="30" as="geometry" />
        </mxCell>
        <mxCell id="-qquWbDdeYW89p1yPmAm-115" value="1,n" style="text;html=1;align=center;verticalAlign=middle;resizable=0;points=[];autosize=1;strokeColor=none;fillColor=none;fontSize=16;" parent="WIyWlLk6GJQsqaUBKTNV-1" vertex="1">
          <mxGeometry x="1989" y="-129" width="50" height="30" as="geometry" />
        </mxCell>
        <mxCell id="-qquWbDdeYW89p1yPmAm-116" value="1,1" style="text;html=1;align=center;verticalAlign=middle;resizable=0;points=[];autosize=1;strokeColor=none;fillColor=none;fontSize=16;" parent="WIyWlLk6GJQsqaUBKTNV-1" vertex="1">
          <mxGeometry x="1370" y="342" width="50" height="30" as="geometry" />
        </mxCell>
        <mxCell id="-qquWbDdeYW89p1yPmAm-117" value="1,n" style="text;html=1;align=center;verticalAlign=middle;resizable=0;points=[];autosize=1;strokeColor=none;fillColor=none;fontSize=16;" parent="WIyWlLk6GJQsqaUBKTNV-1" vertex="1">
          <mxGeometry x="1520" y="865" width="50" height="30" as="geometry" />
        </mxCell>
        <mxCell id="ADJdCe07DrRG_7Hyuh0i-0" value="0,n" style="text;html=1;align=center;verticalAlign=middle;resizable=0;points=[];autosize=1;strokeColor=none;fillColor=none;fontSize=16;" vertex="1" parent="WIyWlLk6GJQsqaUBKTNV-1">
          <mxGeometry x="460" y="955" width="50" height="30" as="geometry" />
        </mxCell>
      </root>
    </mxGraphModel>
  </diagram>
</mxfile>
